<svg width="49" height="29" viewBox="0 0 49 29" fill="none" xmlns="http://www.w3.org/2000/svg">
<path d="M12.9252 0.152468C12.5501 0.333435 12.3204 0.665207 12.2515 1.08746C12.1902 1.47202 12.4505 1.99984 12.818 2.23359C13.0707 2.39947 13.1472 2.40701 14.6937 2.40701H16.3091L17.09 4.32978L17.8633 6.25256L16.0259 8.51464L14.1884 10.7767L13.8363 10.5958C11.7385 9.5552 8.84458 9.40439 6.53249 10.2187C6.22625 10.3243 5.6444 10.5807 5.24629 10.7918C2.62796 12.1264 0.790533 14.5469 0.147434 17.4876C-0.0439643 18.3622 -0.0516202 20.2926 0.139778 21.1597C0.568511 23.1428 1.46426 24.779 2.86529 26.1589C4.26633 27.5312 5.95829 28.421 7.96415 28.8432C8.81396 29.0167 10.6437 29.0242 11.5395 28.8508C14.5176 28.2702 17.0594 26.4077 18.4069 23.8214C18.9275 22.8186 19.1801 22.0871 19.4557 20.745L19.4863 20.5791H22.2808H25.0752L25.3585 20.2172C25.5192 20.0136 27.5787 17.2312 29.9367 14.0341C32.2947 10.837 34.247 8.21303 34.27 8.21303C34.3006 8.21303 34.3925 8.40908 34.4767 8.64283C34.5686 8.88411 34.7599 9.41193 34.9054 9.81911L35.1734 10.5505L34.7753 10.7466C33.4661 11.395 31.9119 12.7523 31.1081 13.9436C29.9367 15.693 29.4391 17.3066 29.4391 19.3349C29.4391 21.3407 29.9597 23.0372 31.1004 24.7564C31.6134 25.5331 33.1599 27.0034 33.979 27.5086C35.9237 28.6849 38.2357 29.2052 40.3488 28.9262C41.5125 28.7754 42.4312 28.5115 43.4265 28.044C44.4983 27.5463 45.2639 27.011 46.1367 26.1589C47.5377 24.7866 48.4335 23.1428 48.8622 21.1597C49.0459 20.3076 49.0459 18.3622 48.8622 17.5102C48.4335 15.5346 47.5071 13.8456 46.0831 12.4657C44.215 10.6485 41.88 9.70601 39.277 9.70601C38.6874 9.70601 38.0443 9.73617 37.8453 9.78141L37.4855 9.84927L37.3783 9.54012C37.317 9.37423 36.7275 7.73045 36.0691 5.89062C35.4107 4.05079 34.8748 2.51258 34.8748 2.47487C34.8748 2.42963 35.9313 2.40701 37.8453 2.42209C40.7775 2.44471 40.8081 2.44471 41.0914 2.61814C41.6962 2.98761 41.8493 3.85475 41.4053 4.36749C41.0838 4.7445 40.8617 4.8199 40.0043 4.8199H39.2387V6.02635V7.23279H40.1497C40.8388 7.23279 41.1756 7.19509 41.5431 7.08199C42.837 6.68989 43.8246 5.57393 44.0696 4.21668C44.3758 2.52012 43.3193 0.793392 41.612 0.20525C41.1144 0.0318241 41.0838 0.0318241 36.2222 0.00920296C31.8737 -0.0134182 31.3377 0.00166321 31.376 0.0996857C31.5904 0.657667 33.0374 4.69926 33.0374 4.75204C33.0374 4.78974 30.2429 4.81236 26.4762 4.80482L19.9227 4.7822L19.4328 3.621C19.1725 2.98007 18.9504 2.44471 18.9504 2.42963C18.9504 2.42209 19.4404 2.40701 20.0452 2.40701C20.9563 2.40701 21.1783 2.38439 21.4003 2.26375C22.2042 1.84903 22.2348 0.763231 21.4539 0.19017C21.2396 0.0318241 21.1553 0.0318241 17.2432 0.00920296C13.308 -0.00587845 13.2391 -0.00587845 12.9252 0.152468ZM31.889 7.25541C31.889 7.27049 31.6669 7.57965 31.399 7.95666C31.1234 8.32613 30.7406 8.85395 30.5339 9.13294C30.3348 9.41193 30.0669 9.77387 29.9444 9.92467C29.8295 10.083 28.6429 11.6816 27.3184 13.4686C25.9939 15.2632 24.8838 16.7486 24.8532 16.7637C24.8072 16.7939 21.0482 7.69275 20.9563 7.33082C20.9333 7.24787 21.9822 7.23279 26.4073 7.23279C29.4238 7.23279 31.889 7.24033 31.889 7.25541ZM20.7802 13.4309C21.7984 15.9343 22.6253 18.0229 22.6253 18.0682C22.6253 18.1436 22.2578 18.1662 21.0635 18.1662H19.494L19.4098 17.7289C19.0117 15.7081 18.07 13.9059 16.7225 12.5789C16.3091 12.1717 16.2708 12.1114 16.3627 11.9756C16.6154 11.6137 18.8432 8.89919 18.8815 8.89165C18.9121 8.89165 19.762 10.9351 20.7802 13.4309ZM11.0418 12.2169C11.616 12.2999 12.4965 12.5638 12.5577 12.6618C12.5807 12.6995 11.6849 13.8607 10.5672 15.233L8.53835 17.7364L8.55366 19.1389L8.57663 20.5414L12.7721 20.5565C15.0842 20.564 16.9829 20.5791 16.9982 20.5942C17.0824 20.6771 16.669 21.8836 16.3091 22.5773C15.2832 24.5905 13.4917 25.9553 11.2562 26.4454C10.4523 26.6189 8.96708 26.5962 8.15555 26.4002C4.9324 25.6311 2.6739 23.0146 2.44422 19.7949C2.26047 17.2387 3.53902 14.7354 5.75924 13.2876C7.33636 12.2697 9.07426 11.9153 11.0418 12.2169ZM40.2722 12.1792C42.4465 12.4431 44.5519 13.8758 45.662 15.8513C47.9741 19.9759 45.685 25.1711 41.0378 26.3474C39.2157 26.8074 37.3936 26.5887 35.7399 25.7065C33.8183 24.6885 32.4632 22.9015 32.0268 20.8053C31.8277 19.8778 31.866 18.3472 32.1033 17.4876C32.5168 16.0097 33.3819 14.7052 34.5915 13.7551C35.1887 13.2801 35.9237 12.8428 35.9926 12.9106C36.0155 12.9332 36.4825 14.1699 37.0261 15.6704C37.9142 18.1059 38.0137 18.4377 38.0137 18.8825V19.3802L39.2234 19.3576L40.4253 19.3349L40.4483 18.7619C40.4713 18.1964 40.456 18.1511 39.4301 15.3009C38.8635 13.7099 38.3889 12.3526 38.3736 12.2923C38.3429 12.0963 39.1927 12.0435 40.2722 12.1792ZM15.1837 14.4488C15.7732 15.1275 16.0948 15.61 16.4163 16.2887C16.7149 16.9145 17.0518 18.0003 16.9829 18.1059C16.9293 18.1964 11.4476 18.1813 11.4476 18.0908C11.4476 18.0003 14.6708 14.019 14.7473 14.019C14.7779 14.019 14.9693 14.2151 15.1837 14.4488Z" fill="#DB6E4B"/>
</svg>
