<svg width="48" height="48" viewBox="0 0 48 48" fill="none" xmlns="http://www.w3.org/2000/svg">
<g filter="url(#filter0_d_78_29)">
<circle cx="26" cy="20" r="20" fill="white"/>
<path d="M28.1852 10.0884C27.7152 10.2488 27.4631 10.6611 27.4573 11.2395C27.4573 11.7091 27.6293 12.0356 28.0018 12.2646L28.2768 12.4364L30.0534 12.4536L31.83 12.4708L28.4774 15.8325C25.7725 18.5413 25.1077 19.24 25.0504 19.4175C24.8326 20.099 25.3484 20.895 26.0647 20.9809C26.6436 21.0439 26.5117 21.1585 30.1623 17.5162L33.5263 14.166L33.5435 15.9413L33.5607 17.7166L33.7326 17.9915C33.9618 18.3638 34.2885 18.5356 34.7584 18.5356C35.3544 18.5298 35.8014 18.232 35.939 17.7453C36.0249 17.4246 36.0192 11.0849 35.9275 10.7814C35.8358 10.4836 35.5149 10.1629 35.2169 10.0712C34.8558 9.96815 28.4889 9.9796 28.1852 10.0884Z" fill="#DB6E4B"/>
<path d="M17.9506 11.0542C17.0118 11.2376 16.2396 12.0266 16.0563 12.9879C15.984 13.3825 15.9785 27.5078 16.0563 27.9634C16.2174 28.9637 16.9896 29.7527 17.9951 29.9417C18.4062 30.0194 32.5945 30.0194 33.0056 29.9417C34.0111 29.7527 34.7833 28.9637 34.9444 27.9634C35.0221 27.4967 35.0166 22.9068 34.9388 22.5456C34.7166 21.5009 33.1611 21.3731 32.7167 22.3567C32.6222 22.5623 32.6111 22.779 32.6111 25.0906V27.6078H25.5003H18.3895V20.4951V13.3825H20.8505C22.4782 13.3825 23.3782 13.3602 23.5282 13.3213C23.656 13.2824 23.8448 13.1658 23.9782 13.0268C24.6115 12.3934 24.3004 11.2376 23.4504 11.0542C23.106 10.9819 18.3284 10.9819 17.9506 11.0542Z" fill="#DB6E4B"/>
</g>
<defs>
<filter id="filter0_d_78_29" x="0" y="0" width="48" height="48" filterUnits="userSpaceOnUse" color-interpolation-filters="sRGB">
<feFlood flood-opacity="0" result="BackgroundImageFix"/>
<feColorMatrix in="SourceAlpha" type="matrix" values="0 0 0 0 0 0 0 0 0 0 0 0 0 0 0 0 0 0 127 0" result="hardAlpha"/>
<feOffset dx="-2" dy="4"/>
<feGaussianBlur stdDeviation="2"/>
<feComposite in2="hardAlpha" operator="out"/>
<feColorMatrix type="matrix" values="0 0 0 0 0 0 0 0 0 0 0 0 0 0 0 0 0 0 0.25 0"/>
<feBlend mode="normal" in2="BackgroundImageFix" result="effect1_dropShadow_78_29"/>
<feBlend mode="normal" in="SourceGraphic" in2="effect1_dropShadow_78_29" result="shape"/>
</filter>
</defs>
</svg>
