<svg width="26" height="26" viewBox="0 0 26 26" fill="none" xmlns="http://www.w3.org/2000/svg">
<path d="M0.471059 0.0826111C0.120375 0.247829 -0.0778372 0.704937 0.0288926 1.09595C0.0695515 1.23364 1.57901 3.26033 4.8114 7.51197L9.54309 13.7242L9.55325 19.5454L9.5685 25.3667L9.69047 25.5814C9.8277 25.8183 10.1276 25.9945 10.3918 26C10.5037 26 11.4134 25.5319 13.365 24.469C15.7893 23.1527 16.1908 22.9159 16.2874 22.7562L16.4043 22.5689V20.0025C16.4043 18.5927 16.4195 16.599 16.4399 15.5692L16.4704 13.7077L21.1919 7.50095C24.3988 3.28236 25.9286 1.23364 25.9693 1.09595C26.0811 0.699429 25.8778 0.242323 25.517 0.0826111C25.273 -0.0275364 0.704847 -0.0275364 0.471059 0.0826111ZM23.484 1.77886C23.4637 1.81741 21.5629 4.32874 19.2555 7.35776C16.9532 10.3868 15.0168 12.9477 14.9609 13.0523C14.8592 13.2396 14.8592 13.3442 14.8389 17.5243L14.8186 21.8034L12.9991 22.7727C11.9979 23.3069 11.1694 23.742 11.1491 23.742C11.1339 23.742 11.1186 21.3684 11.1186 18.466C11.1186 13.4103 11.1135 13.19 11.0221 13.0248C10.9712 12.9312 9.04501 10.3813 6.73762 7.35226C4.43531 4.32874 2.5345 1.81741 2.51417 1.77886C2.47859 1.7293 4.61827 1.71277 12.9991 1.71277C21.3799 1.71277 23.5196 1.7293 23.484 1.77886Z" fill="#DB6E4B"/>
</svg>
