<svg width="31" height="34" viewBox="0 0 31 34" fill="none" xmlns="http://www.w3.org/2000/svg">
<path d="M20.9289 1.09837C15.9023 -1.02841 9.56747 -0.00484681 5.27927 3.63344C4.52519 4.25891 3.41807 5.5123 2.67732 6.5552C-0.546557 11.1377 -0.850815 16.5388 1.72041 23.6056C2.67008 26.1944 2.7769 27.7451 2.15854 30.0988C1.68329 31.9893 1.831 32.7846 2.74436 33.0254C3.25992 33.1719 3.75889 32.9928 4.79624 32.3175C7.03064 30.8292 8.56548 30.4131 11.4494 30.4531C16.7248 30.5285 21.2082 29.3197 24.2387 27.0161C26.4088 25.3567 28.6046 22.1778 29.3654 19.5801C30.1409 16.9615 30.2487 14.7159 29.7446 12.067C28.8146 7.13871 25.5256 3.04531 20.9289 1.09837ZM18.7652 13.0867C19.9288 15.1997 18.9491 18.0185 16.6602 19.0601C15.3725 19.6518 13.5328 19.5375 12.4619 18.7769C11.7206 18.2503 10.7853 16.6446 10.6968 15.7659C10.6026 14.8517 11.0121 13.2283 11.5009 12.54C11.7084 12.248 12.3678 11.7121 12.9704 11.3871C14.9736 10.268 17.6132 11.0446 18.7652 13.0867Z" fill="#4835F2"/>
</svg>
