<svg width="32" height="44" viewBox="0 0 32 44" fill="none" xmlns="http://www.w3.org/2000/svg">
<path d="M22.0848 0.0496607C20.2463 0.378986 18.6111 1.91584 18.1261 3.76634C17.8679 4.77784 18.0165 6.2598 18.4781 7.17721C19.3622 8.94145 21.0521 10 22.9767 10C25.5037 10 27.5614 8.20439 27.9447 5.65604C28.1794 4.1035 27.6631 2.6529 26.4661 1.45322C25.7619 0.755359 25.2221 0.426033 24.3458 0.167277C23.8138 0.0104551 22.6481 -0.0522738 22.0848 0.0496607ZM23.9781 2.69995C25.0187 3.14689 25.6759 4.37794 25.4412 5.44433C25.3082 6.03241 25.1282 6.37742 24.737 6.76163C24.2128 7.29483 23.806 7.45165 22.9767 7.45165C22.3665 7.45165 22.2178 7.42028 21.8736 7.23994C21.3572 6.9655 20.8252 6.36958 20.6374 5.85207C20.4184 5.24046 20.4888 4.3701 20.7861 3.81338C21.1225 3.19394 21.7328 2.72347 22.4291 2.54313C22.7889 2.44903 23.5713 2.52744 23.9781 2.69995Z" fill="#DB6E4B"/>
<path d="M14.053 9.04823C13.8609 9.0863 13.5382 9.17768 13.3231 9.24621C12.6468 9.46704 6.79919 12.3987 6.53793 12.65C6.3074 12.8632 6.10761 13.4267 4.35562 18.62C2.21173 25.0164 2.28089 24.7042 2.79573 25.2677C3.16457 25.6713 3.46426 25.7246 5.31614 25.7246C6.18445 25.7246 6.89908 25.7474 6.89908 25.7703C6.89908 25.7931 5.35456 29.5472 3.47194 34.116C1.58932 38.6849 0.0294291 42.5456 0.00637661 42.6979C-0.0474126 43.1167 0.244586 43.6116 0.6749 43.8325C1.00532 44 1.07448 44 3.63331 44C5.10098 44 6.36119 43.9695 6.50719 43.9239C6.65319 43.8858 6.85298 43.7716 6.96056 43.6802C7.06045 43.5812 8.59728 40.6343 10.3723 37.1163C13.2308 31.4585 13.6074 30.7503 13.6919 30.8721C13.7457 30.9559 14.5602 32.3494 15.4977 33.9714L17.1959 36.9259V39.7966C17.1959 41.4947 17.2343 42.8045 17.2804 43.0101C17.3265 43.2004 17.4495 43.4517 17.5647 43.5736C17.9643 43.9924 18.0335 44 20.9381 44C23.4738 44 23.6198 43.9924 23.9272 43.8401C24.127 43.7487 24.3345 43.566 24.4344 43.406L24.6111 43.1243L24.6342 38.6164C24.6495 34.9004 24.6342 34.0627 24.5496 33.8571C24.4574 33.6515 20.2695 26.3109 19.9238 25.7626C19.8392 25.6256 19.893 25.4276 20.3771 24.2397C20.6845 23.4858 20.9611 22.8005 20.9919 22.7167C21.038 22.5949 21.184 22.8233 21.7065 23.8589C22.0676 24.5671 22.4211 25.2144 22.4903 25.2981C22.6209 25.4428 27.6771 27.9861 28.0613 28.0928C28.3533 28.1765 28.8528 28.0471 29.0987 27.8339C29.3599 27.5902 31.8803 23.8437 31.9572 23.562C32.0648 23.2117 31.9649 22.7776 31.7113 22.4959C31.596 22.3588 30.72 21.7344 29.7749 21.1176L28.0536 19.9906L26.5321 16.9752C25.7023 15.3152 24.8724 13.7542 24.6879 13.4953C24.3037 12.9622 23.8811 12.5739 23.3202 12.216C22.8745 11.9418 16.8655 9.36043 16.1969 9.16245C15.6898 9.01015 14.5218 8.94923 14.053 9.04823ZM18.7865 12.8708C21.791 14.1425 22.083 14.2796 22.4057 14.5994C22.6901 14.8888 23.0589 15.5589 24.4497 18.3002L26.1479 21.6507L27.5849 22.6025C28.3764 23.1279 29.0295 23.5848 29.0295 23.6153C29.0295 23.6762 28.0767 25.0849 27.923 25.2448C27.8615 25.3058 27.3928 25.1078 26.0711 24.4453L24.3037 23.5544L23.1357 21.2319C22.3981 19.785 21.8755 18.8332 21.7295 18.7037C21.2685 18.2773 20.5846 18.2773 20.1082 18.7037C19.7778 19.0007 17.2727 25.1991 17.2727 25.7246C17.2727 26.052 17.4725 26.4251 19.7317 30.3467L22.1906 34.6186V38.0909V41.5633H20.9688H19.7393L19.7163 38.9514L19.6932 36.3395L17.096 31.8316C15.1903 28.5268 14.4296 27.278 14.2528 27.1561C14.0992 27.0495 13.8686 26.981 13.592 26.9582C12.7698 26.9049 13.0618 26.4251 9.03528 34.3673C7.06045 38.2585 5.43909 41.4719 5.42372 41.51C5.40835 41.5404 4.87814 41.5557 4.24036 41.548L3.07236 41.5252L7.33708 31.2072C9.68075 25.5342 12.0244 19.846 12.5546 18.5667C13.6074 16.0081 13.6612 15.7721 13.3307 15.2847C13.2385 15.14 12.9926 14.9421 12.7852 14.8431C12.4394 14.6755 12.3779 14.6679 12.0552 14.7517C11.3943 14.9192 11.3636 14.9801 9.62696 19.2139C8.74328 21.3461 7.99792 23.1432 7.95181 23.1888C7.86729 23.2955 5.43909 23.3335 5.43909 23.2269C5.4314 23.1965 6.09993 21.1938 6.91445 18.7647L8.3975 14.3633L11.1638 12.9851C12.6853 12.2312 14.0684 11.5687 14.2375 11.5078C14.4296 11.4469 14.7369 11.424 15.0366 11.4469C15.4516 11.4773 15.9664 11.6677 18.7865 12.8708Z" fill="#DB6E4B"/>
</svg>
