<svg width="38" height="38" viewBox="0 0 38 38" fill="none" xmlns="http://www.w3.org/2000/svg">
<path d="M25.0628 0.24424C21.2909 1.0654 18.0553 4.20725 17.0721 8.0096C16.8933 8.6701 16.7682 9.83044 16.7682 10.723C16.7861 14.6325 18.824 17.8279 23.2037 20.809C24.8126 21.898 25.5098 22.737 26.1176 24.3258C26.6181 25.5932 27.0293 25.986 27.6549 25.7539C28.0125 25.6289 28.227 25.3255 28.5487 24.5221C29.2281 22.7727 29.9431 21.9158 31.6235 20.7733C34.6982 18.6847 36.7898 16.1855 37.5942 13.6506C38.1663 11.8298 38.1305 9.13424 37.5048 7.3491C36.8792 5.54611 36.0211 4.2251 34.6446 2.92195C32.0883 0.49416 28.513 -0.505518 25.0628 0.24424ZM28.7275 7.93819C30.2649 8.6701 30.8548 10.6695 29.961 12.1868C29.4604 13.0437 28.3521 13.722 27.4225 13.722C26.779 13.722 25.5813 13.1865 25.1701 12.7224C24.7411 12.2404 24.312 11.1514 24.312 10.5623C24.312 10.3124 24.4729 9.74118 24.6874 9.31275C25.3846 7.86679 27.2259 7.24199 28.7275 7.93819Z" fill="#DB6E4B"/>
<path d="M0.44691 5.06417L0 5.49261V19.3988V33.3051L0.411158 33.8942C0.625675 34.2155 1.00108 34.6439 1.25135 34.8225C1.73401 35.1795 11.4052 38 12.156 38C12.3884 38 14.8911 37.3395 17.7155 36.5362L22.8282 35.0902L28.6738 36.5362C31.8736 37.3395 34.7518 38 35.0378 38C35.3774 38 35.7528 37.8393 36.021 37.5537L36.4679 37.1253V28.9672V20.827L35.7171 21.4339C35.288 21.7731 34.6087 22.3086 34.1976 22.6478L33.4289 23.2369V28.9136V34.5725L29.5497 33.5907C27.4045 33.0552 25.3488 32.5553 24.9912 32.4482L24.3119 32.2697V29.8598V27.4498L22.8461 25.3791L21.3623 23.3262L21.3087 27.8426L21.2729 32.3768L17.644 33.3943C15.6419 33.9656 13.9079 34.4297 13.7827 34.4297C13.4788 34.4297 13.604 9.02718 13.9079 7.92039C14.0151 7.52766 14.0866 7.18849 14.0509 7.17064C14.033 7.13493 13.5682 7.20634 13.014 7.31345C12.0487 7.50981 11.9057 7.47411 6.95393 6.06385C4.16521 5.26054 1.64463 4.61789 1.37648 4.61789C1.09046 4.61789 0.69718 4.7964 0.44691 5.06417ZM6.91817 9.2057L10.5471 10.2411V18.9883C10.565 30.8773 10.5471 34.3048 10.4577 34.394C10.422 34.4297 8.74157 33.9834 6.72153 33.4122L3.03899 32.3768V20.2736C3.03899 13.6328 3.09262 8.18817 3.16413 8.18817C3.23563 8.18817 4.91601 8.6523 6.91817 9.2057Z" fill="#DB6E4B"/>
</svg>
