<svg width="33" height="18" viewBox="0 0 33 18" fill="none" xmlns="http://www.w3.org/2000/svg">
<path d="M8.25883 7.8405C3.93091 12.1761 0.276808 15.9147 0.121314 16.2002C-0.0600951 16.5377 -0.0341795 16.8493 0.173146 17.2647C0.587796 18.0435 1.28752 18.2253 2.03907 17.706C2.37598 17.4983 5.64135 14.331 9.32137 10.6703C12.9755 7.00972 16.2149 3.99814 16.4741 3.94621C16.8369 3.89429 18.9102 5.81547 23.6268 10.5665C27.3068 14.2531 30.5722 17.4464 30.935 17.6801C31.7384 18.1993 32.4122 18.0695 32.8269 17.2647C33.0342 16.8493 33.0601 16.5377 32.8787 16.2002C32.4122 15.3435 16.8887 0 16.5 0C16.2927 0 12.5867 3.53082 8.25883 7.8405Z" fill="#DB6E4B"/>
</svg>
